# xmcd
#
# Track frame offsets:
#	150
#	14680
#	28371
#	41254
#	51683
#	61929
#	72077
#	82764
#	95416
#	106882
#	116354
#	131186
#	142781
#	153779
#	165025
#
# Disc length: 2377 seconds
#
# Revision: 0
# Processed by: cddbd v1.4PL0 Copyright (c) Steve Scherf et al.
# Submitted via: dBpowerAMP V4.0
#
DISCID=b909470f
DTITLE=You Got What You Wanted - Portrait In Blues - Disc 1 - Cussin', Cryin' And Carryin' On
DYEAR=1900
DGENRE=Blues
TTITLE0=Black Angel
TTITLE1=Getting Nasty
TTITLE2=A Fool In Love
TTITLE3=Nothing You Can Do Boy
TTITLE4=Shake A Tail Feather
TTITLE5=I'm Fed Up
TTITLE6=You Got What You Wanted
TTITLE7=Bethca Can't Kiss Me (Just One Time)
TTITLE8=Cussin', Cryin' And Carryin' On
TTITLE9=Ain't Nobody's Business
TTITLE10=Funky Mule
TTITLE11=Thinking Black
TTITLE12=Black Beauty
TTITLE13=Ghetto Funk
TTITLE14=Black's Alley
EXTD=
EXTT0=
EXTT1=
EXTT2=
EXTT3=
EXTT4=
EXTT5=
EXTT6=
EXTT7=
EXTT8=
EXTT9=
EXTT10=
EXTT11=
EXTT12=
EXTT13=
EXTT14=
PLAYORDER=
